<?xml version="1.0" encoding="UTF-8"?><!DOCTYPE svg PUBLIC "-//W3C//DTD SVG 1.1//EN" "http://www.w3.org/Graphics/SVG/1.1/DTD/svg11.dtd"><svg xmlns="http://www.w3.org/2000/svg"><symbol id="eye" viewBox="0 0 24 24"><path d="M15 12c0 1.654-1.346 3-3 3s-3-1.346-3-3 1.346-3 3-3 3 1.346 3 3zm9-.449S19.748 19 12.015 19C4.835 19 0 11.551 0 11.551S4.446 5 12.015 5C19.709 5 24 11.551 24 11.551zM17 12a5 5 0 1 0-10 0 5 5 0 0 0 10 0z"/></symbol><symbol id="refresh" viewBox="0 0 24 24"><path d="M13.5 2C7.879 2 3.289 6.443 3.025 12H0l5 6.625L10 12H7.025c.257-3.351 3.06-6 6.475-6 3.584 0 6.5 2.916 6.5 6.5S17.084 19 13.5 19a6.479 6.479 0 0 1-4.728-2.053l-2.427 3.216A10.449 10.449 0 0 0 13.5 23C19.29 23 24 18.29 24 12.5S19.29 2 13.5 2z"/></symbol></svg>